<svg xmlns="http://www.w3.org/2000/svg" width="24" height="29.859" viewBox="0 0 24 29.859">
  <path id="Bookmark_-_Outline" data-name="Bookmark - Outline" d="M5.775,1H16.225A6.782,6.782,0,0,1,23,7.775v19.3a3.909,3.909,0,0,1-.851,2.636,3.688,3.688,0,0,1-2.938,1.152c-.93,0-2.111-.72-3.831-2.335-1.3-1.219-2.646-2.716-3.631-3.809-.324-.36-.673-.747-.94-1.032-.264.294-.61.7-.931,1.071-.936,1.089-2.217,2.58-3.441,3.786-1.629,1.6-2.754,2.32-3.649,2.32A3.515,3.515,0,0,1-1,27.071V7.775A6.782,6.782,0,0,1,5.775,1ZM19.211,29.254c1.51,0,2.183-.673,2.183-2.183V7.775a5.175,5.175,0,0,0-5.169-5.169H5.775A5.175,5.175,0,0,0,.606,7.775v19.3a2.386,2.386,0,0,0,.5,1.577,2.16,2.16,0,0,0,1.687.606c.065,0,.689-.052,2.522-1.858,1.176-1.158,2.433-2.62,3.35-3.688.413-.481.77-.9,1.043-1.2.409-.449.681-.724,1.1-.724s.676.264,1.086.694c.275.289.638.691,1.057,1.157.966,1.072,2.288,2.541,3.537,3.714C18.405,29.162,19.093,29.254,19.211,29.254Z" transform="translate(1 -1)" fill="#4a4f5c"/>
</svg>
