<svg xmlns="http://www.w3.org/2000/svg" width="24.482" height="25.786" viewBox="0 0 24.482 25.786">
  <path id="Home" d="M14.045,24.786V20.326a2.808,2.808,0,0,0-5.616,0v4.458l-.971-.209A7.22,7.22,0,0,1,1.77,17.519v-2.98A3.21,3.21,0,0,1-.071,9.106L8.953-.045a3.209,3.209,0,0,1,4.569,0l9.024,9.151A3.211,3.211,0,0,1,20.7,14.539v2.98a7.222,7.222,0,0,1-5.687,7.057Zm-2.808-8.871a4.417,4.417,0,0,1,4.412,4.412V22.7A5.618,5.618,0,0,0,19.1,17.519V12.963h1.162A1.6,1.6,0,0,0,21.4,10.232L12.379,1.082a1.6,1.6,0,0,0-2.284,0L1.071,10.232a1.561,1.561,0,0,0-.338,1.746,1.561,1.561,0,0,0,1.48.985H3.375v4.555A5.616,5.616,0,0,0,6.825,22.7V20.326A4.417,4.417,0,0,1,11.237,15.914Z" transform="translate(1.004 1)" fill="#fff"/>
</svg>
