<svg xmlns="http://www.w3.org/2000/svg" width="21.146" height="22.741" viewBox="0 0 21.146 22.741">
  <g id="logout_Icon" data-name="logout Icon" transform="translate(0.5 0.5)">
    <path id="Vector" d="M10.978,21.741H3.126A3.274,3.274,0,0,1,0,18.344V3.4A3.274,3.274,0,0,1,3.126,0h7.852A3.274,3.274,0,0,1,14.1,3.4V5.1a.784.784,0,1,1-1.562,0V3.4a1.637,1.637,0,0,0-1.563-1.7H3.126A1.637,1.637,0,0,0,1.562,3.4V18.344a1.637,1.637,0,0,0,1.563,1.7h7.852a1.637,1.637,0,0,0,1.563-1.7v-1.7a.784.784,0,1,1,1.562,0v1.7A3.274,3.274,0,0,1,10.978,21.741Zm6.151-7.177a.744.744,0,0,1-.552-.248.9.9,0,0,1,0-1.2l1.244-1.354H8.439a.852.852,0,0,1,0-1.7h9.382L16.577,8.711a.9.9,0,0,1,0-1.2.737.737,0,0,1,1.1,0l1.75,1.9a2.258,2.258,0,0,1,0,3l-1.75,1.9A.745.745,0,0,1,17.129,14.565Z" fill="#ee6093" stroke="#ee6093" stroke-width="1"/>
  </g>
</svg>
