<svg xmlns="http://www.w3.org/2000/svg" width="59" height="59" viewBox="0 0 59 59">
  <g id="Group_8442" data-name="Group 8442" transform="translate(-493 -175)">
    <rect id="Rectangle_4545" data-name="Rectangle 4545" width="59" height="59" rx="19" transform="translate(493 175)" fill="#fff"/>
    <g id="Group_8161" data-name="Group 8161" transform="translate(202.027 -245.5)">
      <path id="Rectangle_9_-_Outline" data-name="Rectangle 9 - Outline" d="M1.4-1H7A2.4,2.4,0,0,1,9.4,1.4V7A2.4,2.4,0,0,1,7,9.4H1.4A2.4,2.4,0,0,1-1,7V1.4A2.4,2.4,0,0,1,1.4-1ZM7,7.8A.8.8,0,0,0,7.8,7V1.4A.8.8,0,0,0,7,.6H1.4a.8.8,0,0,0-.8.8V7a.8.8,0,0,0,.8.8Z" transform="translate(323.072 452.6)" fill="#435ebe"/>
      <path id="Rectangle_10_-_Outline" data-name="Rectangle 10 - Outline" d="M1.4-1H7A2.4,2.4,0,0,1,9.4,1.4V7A2.4,2.4,0,0,1,7,9.4H1.4A2.4,2.4,0,0,1-1,7V1.4A2.4,2.4,0,0,1,1.4-1ZM7,7.8A.8.8,0,0,0,7.8,7V1.4A.8.8,0,0,0,7,.6H1.4a.8.8,0,0,0-.8.8V7a.8.8,0,0,0,.8.8Z" transform="translate(323.072 439)" fill="#435ebe"/>
      <path id="Rectangle_11_-_Outline" data-name="Rectangle 11 - Outline" d="M1.4-1H7A2.4,2.4,0,0,1,9.4,1.4V7A2.4,2.4,0,0,1,7,9.4H1.4A2.4,2.4,0,0,1-1,7V1.4A2.4,2.4,0,0,1,1.4-1ZM7,7.8A.8.8,0,0,0,7.8,7V1.4A.8.8,0,0,0,7,.6H1.4a.8.8,0,0,0-.8.8V7a.8.8,0,0,0,.8.8Z" transform="translate(309.473 439)" fill="#435ebe"/>
      <path id="Rectangle_12_-_Outline" data-name="Rectangle 12 - Outline" d="M1.4-1H7A2.4,2.4,0,0,1,9.4,1.4V7A2.4,2.4,0,0,1,7,9.4H1.4A2.4,2.4,0,0,1-1,7V1.4A2.4,2.4,0,0,1,1.4-1ZM7,7.8A.8.8,0,0,0,7.8,7V1.4A.8.8,0,0,0,7,.6H1.4a.8.8,0,0,0-.8.8V7a.8.8,0,0,0,.8.8Z" transform="translate(309.473 452.6)" fill="#435ebe"/>
    </g>
  </g>
</svg>
