<svg xmlns="http://www.w3.org/2000/svg" width="24" height="23.775" viewBox="0 0 24 23.775">
  <g id="Group_9" data-name="Group 9" transform="translate(0 -493.128)">
    <path id="Polygon_4_-_Outline" data-name="Polygon 4 - Outline" d="M16.5,5.128A3.456,3.456,0,0,1,19.78,7.416l.019.052a1.83,1.83,0,0,0,2.3,1.109l.077-.026A3.561,3.561,0,0,1,23.3,8.365a3.494,3.494,0,0,1,3.009,1.769,3.44,3.44,0,0,1-.017,3.481l-.171.294a1.838,1.838,0,0,0,.556,2.439l.293.2A3.456,3.456,0,0,1,28.3,18.235a3.545,3.545,0,0,1-.866,3.724,3.456,3.456,0,0,1-1.938.929l-.236.033A1.832,1.832,0,0,0,23.686,24.9l.018.206a3.428,3.428,0,0,1-.883,2.648A3.554,3.554,0,0,1,20.207,28.9a3.447,3.447,0,0,1-2.42-1,1.833,1.833,0,0,0-2.565,0,3.447,3.447,0,0,1-2.42,1,3.554,3.554,0,0,1-2.613-1.152A3.428,3.428,0,0,1,9.305,25.1l.018-.206A1.832,1.832,0,0,0,7.75,22.922l-.236-.033a3.456,3.456,0,0,1-1.938-.929,3.545,3.545,0,0,1-.866-3.724,3.457,3.457,0,0,1,1.329-1.689l.293-.2a1.838,1.838,0,0,0,.556-2.439l-.171-.294A3.44,3.44,0,0,1,6.7,10.134,3.5,3.5,0,0,1,9.708,8.365a3.559,3.559,0,0,1,1.125.186l.077.026a1.83,1.83,0,0,0,2.3-1.108l.019-.052A3.456,3.456,0,0,1,16.5,5.128Zm5.015,5.2a3.5,3.5,0,0,1-3.275-2.289l-.019-.052a1.833,1.833,0,0,0-3.442,0l-.019.052a3.486,3.486,0,0,1-4.377,2.11l-.077-.026a1.907,1.907,0,0,0-.6-.1,1.835,1.835,0,0,0-1.574.939,1.779,1.779,0,0,0,.013,1.823l.171.294A3.5,3.5,0,0,1,7.26,17.719l-.293.2a1.833,1.833,0,0,0,.775,3.332l.236.033a3.487,3.487,0,0,1,2.994,3.758l-.018.206a1.764,1.764,0,0,0,.455,1.385,1.92,1.92,0,0,0,1.393.615,1.773,1.773,0,0,0,1.261-.531,3.488,3.488,0,0,1,4.883,0,1.773,1.773,0,0,0,1.261.531,1.92,1.92,0,0,0,1.392-.615,1.764,1.764,0,0,0,.455-1.385l-.018-.206a3.487,3.487,0,0,1,2.994-3.758l.236-.033a1.833,1.833,0,0,0,.775-3.332l-.293-.2a3.5,3.5,0,0,1-1.058-4.642l.171-.294a1.779,1.779,0,0,0,.013-1.823,1.835,1.835,0,0,0-1.574-.938,1.909,1.909,0,0,0-.6.1l-.077.026A3.483,3.483,0,0,1,21.52,10.327Z" transform="translate(-4.505 488)" fill="#4a4f5c"/>
    <path id="Ellipse_1" data-name="Ellipse 1" d="M4.139,1.656A2.484,2.484,0,1,0,6.623,4.139,2.486,2.486,0,0,0,4.139,1.656M4.139,0A4.139,4.139,0,1,1,0,4.139,4.139,4.139,0,0,1,4.139,0Z" transform="translate(7.861 501.3)" fill="#4a4f5c"/>
  </g>
</svg>
