<svg xmlns="http://www.w3.org/2000/svg" width="26.366" height="24" viewBox="0 0 26.366 24">
  <g id="Group_8165" data-name="Group 8165" transform="translate(-1314.355 -212.334)">
    <path id="Subtract" d="M4.776,6.5v2.7a1.014,1.014,0,1,0,2.028,0V6.5A6.423,6.423,0,0,0,.382.08h0S.617.144.229.08C.215.422.164-1,.229.419S1.924,2.345,1.924,2.345s.344-.015,1.66.929S4.776,6.5,4.776,6.5Z" transform="translate(1333.917 226.113)" fill="#435ebe"/>
    <path id="Vector_631_Stroke_" data-name="Vector 631 (Stroke)" d="M2.028,6.423v2.7A1.014,1.014,0,1,1,0,9.127v-2.7A6.423,6.423,0,0,1,6.423,0h8.113a6.423,6.423,0,0,1,6.423,6.423v2.7a1.014,1.014,0,1,1-2.028,0v-2.7a4.394,4.394,0,0,0-4.394-4.394H6.423A4.394,4.394,0,0,0,2.028,6.423Z" transform="translate(1314.355 226.193)" fill="#435ebe"/>
    <path id="Subtract-2" data-name="Subtract" d="M3.174,6.148a1.352,1.352,0,0,0,0-1.48L1.647,2.333l-.033-.048L.068.127A.079.079,0,0,1,.129,0h0A.344.344,0,0,1,.382.1L4.73,4.451a1.352,1.352,0,0,1,0,1.912L.382,10.711a.344.344,0,0,1-.253.1h0a.079.079,0,0,1-.062-.124L1.615,8.529l.033-.048Z" transform="translate(1329.966 212.335)" fill="#435ebe"/>
    <path id="Ellipse_132_Stroke_" data-name="Ellipse 132 (Stroke)" d="M5.408,10.817a5.409,5.409,0,1,1,5.409-5.409A5.415,5.415,0,0,1,5.408,10.817Zm0-8.788A3.38,3.38,0,1,0,8.788,5.408,3.383,3.383,0,0,0,5.408,2.029Z" transform="translate(1319.426 212.334)" fill="#435ebe"/>
  </g>
</svg>
